<?xml version="1.0" encoding="utf-8"?>
<!-- Uploaded to SVGRepo https://www.svgrepo.com -->
<svg version="1.2" baseProfile="tiny" id="Layer_1" xmlns="http://www.w3.org/2000/svg" xmlns:xlink="http://www.w3.org/1999/xlink"
	 x="0px" y="0px" viewBox="0 0 207.3 256" xml:space="preserve">
<g>
	<polygon fill="none" points="89.1,95.6 97.5,92.8 88.4,79.3 	"/>
	<polygon fill="none" points="161.2,98.8 149.2,108 155.5,112.8 	"/>
	<path fill="none" d="M45,122c-5.2,0-9.5,4.3-9.5,9.5c0,5.3,4.3,9.6,9.5,9.6c5.3,0,9.6-4.3,9.6-9.6C54.5,126.3,50.2,122,45,122z"/>
	<path fill="none" d="M122.7,91.1c0.5,1.4,1.3,1.8,2.8,1.3c1.6-0.5,2.7-1.3,3.7-2.2l-1-3l-3.8,1.3C122.8,89.1,122.3,89.7,122.7,91.1
		z"/>
	<path fill="#fff" d="M133.9,26.2c0.4,0,0.9-0.1,1.3-0.3c1.6-0.7,2.4-2.6,1.6-4.3c-0.7-1.6-2.7-2.4-4.3-1.6c-1.6,0.7-2.4,2.6-1.6,4.3
		C131.5,25.4,132.7,26.2,133.9,26.2z"/>
	<path fill="#fff" d="M123.6,32.6c0.7,0,1.5-0.3,2.1-0.8c1.4-1.1,1.6-3.2,0.4-4.6c-1.1-1.4-3.2-1.6-4.6-0.4c-1.4,1.2-1.6,3.2-0.4,4.6
		C121.8,32.2,122.7,32.6,123.6,32.6z"/>
	<path fill="#fff" d="M165.7,46.2l5.4-7.7l17.2,5.2l0.2,9.4l12.1,3.7l-2.5-48.6l-15.5-4.7l-29,39.1L165.7,46.2z M187.8,14.5l0.3,20.1l-11.8-3.6
		L187.8,14.5z"/>
	<path fill="#fff" d="M151.4,22.5c0.9,0,1.7-0.3,2.3-1c0.6-0.6,0.9-1.4,0.9-2.3c0-0.9-0.3-1.7-0.9-2.3c-0.6-0.6-1.4-1-2.3-1
		c-0.9,0-1.7,0.3-2.3,1c-0.6,0.6-0.9,1.4-0.9,2.3c0,0.9,0.3,1.7,0.9,2.3C149.7,22.2,150.5,22.5,151.4,22.5z"/>
	<path fill="#fff" d="M113.5,41c0.6,0.4,1.2,0.6,1.9,0.6c1,0,2-0.5,2.7-1.4c1-1.5,0.7-3.5-0.8-4.5c-1.5-1-3.5-0.7-4.5,0.8
		C111.7,37.9,112,39.9,113.5,41z"/>
	<path fill="#fff" d="M134.1,40.9v10.9c29,9.9,49.9,37.4,49.9,69.8c0,18.8-7.2,36-18.8,49.1c0,0,3.4-39.3-43-39.3c-66.7-1.5-65.9-60.3-65.9-60.3
		c9.4-10,21.5-17.4,35.2-20.9V39.3c-31.4,7.1-57.8,32.1-64,59c-1.7,7.2-3.5,25.8-3.5,25.8L6.2,169c-0.3,0.9-0.5,1.7-0.5,2.7
		c0,3.8,3.1,6.9,6.9,6.9h11.4v23.9c0,18.6,15,33.6,33.6,33.6H71v16.2h91.1v-62.5c19.9-15.6,32.7-39.9,32.7-67.1
		C194.7,84,169.1,51.5,134.1,40.9z M45,141c-5.2,0-9.5-4.3-9.5-9.6c0-5.2,4.3-9.5,9.5-9.5c5.3,0,9.6,4.3,9.6,9.5
		C54.5,136.7,50.2,141,45,141z"/>
	<path fill="#fff" d="M108.5,52.1c0.4,0.1,0.8,0.2,1.2,0.2c1.3,0,2.5-0.8,3-2.1c0.6-1.7-0.2-3.5-1.9-4.2c-1.7-0.6-3.6,0.2-4.2,1.9
		C106,49.6,106.8,51.4,108.5,52.1z"/>
	<path fill="#fff" d="M156.9,130.5l12.5-34l-8.3-6.3l-29.4,21.2l6.5,4.9l5.6-4.3l9.2,7l-2.6,6.5L156.9,130.5z M149.2,108l12-9.1l-5.6,14
		L149.2,108z"/>
	<path fill="#fff" d="M113,81.1c2.4-1.3,4.6-2.4,7-3.2c4.2-1.4,5-0.7,5.9,2l0.7,2l-5.7,1.9c-5.5,1.8-7.2,4.7-5.5,9.9c1.5,4.4,4.7,7.2,9.6,5.6
		c1.8-0.6,4.4-2,6.9-4.7l1.1,1.5l6.4-2.2l-5.5-16.6c-2.4-7.2-5.3-9.2-14.5-6.1c-3.1,1-6.9,2.9-9.1,4.5L113,81.1z M129.2,90.2
		c-1,0.9-2,1.7-3.7,2.2c-1.5,0.5-2.3,0.1-2.8-1.3c-0.5-1.4,0-2.1,1.7-2.6l3.8-1.3L129.2,90.2z"/>
	<path fill="#fff" d="M105.9,105.1l8.5-2.8l-23-31.7l-10.9,3.6l0.8,39.2l8.5-2.8l-0.3-7.6l12.2-4.1L105.9,105.1z M89.1,95.6l-0.8-16.3l9.1,13.5
		L89.1,95.6z"/>
</g>
</svg>